<svg xmlns="http://www.w3.org/2000/svg" width="1000" height="620" viewBox="0 0 1000 620">
<rect width="1000" height="620" fill="white"/>
<text x="500" y="42" text-anchor="middle" font-family="Arial" font-size="25" font-weight="bold">E07 — Discovery ve Holdout Aday Sıralaması</text>
<text x="500" y="70" text-anchor="middle" font-family="Arial" font-size="15">L1 ölçümüne göre 25 boyut içindeki sıralama</text>
<line x1="160" y1="110" x2="160" y2="520" stroke="#333" stroke-width="2"/>
<line x1="500" y1="110" x2="500" y2="520" stroke="#333" stroke-width="2"/>
<line x1="840" y1="110" x2="840" y2="520" stroke="#333" stroke-width="2"/>
<text x="330" y="100" text-anchor="middle" font-family="Arial" font-size="17" font-weight="bold">Discovery</text>
<text x="670" y="100" text-anchor="middle" font-family="Arial" font-size="17" font-weight="bold">Holdout</text>
<text x="500" y="575" text-anchor="middle" font-family="Arial" font-size="15">Aday boyutu</text>
<g font-family="Arial" font-size="15">
<text x="330" y="150" text-anchor="middle">496 — 1</text><text x="670" y="150" text-anchor="middle">496 — 1</text>
<text x="330" y="220" text-anchor="middle">430 — 2</text><text x="670" y="220" text-anchor="middle">430 — 2</text>
<text x="330" y="290" text-anchor="middle">314 — 3</text><text x="670" y="290" text-anchor="middle">314 — 4</text>
<text x="330" y="360" text-anchor="middle">36 — 4</text><text x="670" y="360" text-anchor="middle">36 — 3</text>
<text x="330" y="430" text-anchor="middle">374 — 5</text><text x="670" y="430" text-anchor="middle">374 — 5</text>
</g>
<g stroke="#555" stroke-width="2"><line x1="370" y1="140" x2="630" y2="140"/><line x1="370" y1="210" x2="630" y2="210"/><line x1="370" y1="280" x2="630" y2="350"/><line x1="370" y1="350" x2="630" y2="280"/><line x1="370" y1="420" x2="630" y2="420"/></g>
<text x="500" y="535" text-anchor="middle" font-family="Arial" font-size="14">5 adayın tamamı Holdout'ta da ilk 5 sırada kaldı.</text>
</svg>